{"title":"NightMaster Watch the Shadows Dance DVDrip English Klam","uid":5784576,"size":790053101,"categoryP":"video","categoryS":"movies","magnet":"?xt=urn:btih:3e206069f0008f7a2e7ae198327f10a596106e59&amp;dn=NightMaster+Watch+the+Shadows+Dance+DVDrip+English+Klam&amp;tr=udp%3A%2F%2Ftracker.openbittorrent.com%3A80&amp;tr=udp%3A%2F%2Fopen.demonii.com%3A1337&amp;tr=udp%3A%2F%2Ftracker.coppersurfer.tk%3A6969&amp;tr=udp%3A%2F%2Fexodus.desync.com%3A6969","seeders":0,"leechers":3,"uploader":"Klambake","files":4,"time":1282553553,"description":"With: Tom Jennings, Nicole Kidman and Joanne Samuel\n\nBy day, Robbie (Tom Jennings) and Amy (Nicole Kidman) are students at an Australian university in the near future. By night, they are the champions of a highly competitive martial arts wargame played in an abandoned warehouse. They are are able to balance the game with their course loads with no difficulty until the leader of the game--their obsessive martial arts instructor--loses his grip on reality...\n &lt;a href=&quot;\nhttp://www.imdb.com/title/tt0173443&quot; rel=&quot;nofollow&quot; target=&quot;_NEW&quot;&gt;\nhttp://www.imdb.com/title/tt0173443&lt;/a&gt;\n\nGeneral:\n\nComplete name                    : Nightmaster\\Nightmaster.avi\nFormat                           : AVI\nFormat/Info                      : Audio Video Interleave\nFile size                        : 751 MiB\nDuration                         : 1h 27mn\nOverall bit rate                 : 1 203 Kbps\n\nVideo:\n\nFormat                           : MPEG-4 Visual\nFormat profile                   : Simple@L1\nFormat settings, BVOP            : No\nFormat settings, QPel            : No\nFormat settings, GMC             : No warppoints\nFormat settings, Matrix          : Default (H.263)\nCodec ID                         : DX50\nCodec ID/Hint                    : DivX 5\nDuration                         : 1h 27mn\nBit rate                         : 1 000 Kbps\nWidth                            : 720 pixels\nHeight                           : 400 pixels\nDisplay aspect ratio             : 16:9\nFrame rate                       : 25.000 fps\nColor space                      : YUV\nChroma subsampling               : 4:2:0\nBit depth                        : 8 bits\nScan type                        : Progressive\nBits/(Pixel*Frame)               : 0.139\nStream size                      : 624 MiB (83%)\nWriting library                  : Lavc52.0.0\n\nAudio:\n\nFormat                           : AC-3\nFormat/Info                      : Audio Coding 3\nMode extension                   : CM (complete main)\nCodec ID                         : 2000\nDuration                         : 1h 27mn\nBit rate mode                    : Constant\nBit rate                         : 192 Kbps\nChannel(s)                       : 2 channels\nChannel positions                : Front: L R\nSampling rate                    : 48.0 KHz\nStream size                      : 120 MiB (16%)\nAlignment                        : Aligned on interleaves\nInterleave, duration             : 32 ms (0.80 video frame)\nInterleave, preload duration     : 32 ms","torrent":{"xt":"urn:btih:3e206069f0008f7a2e7ae198327f10a596106e59","amp;dn":"NightMaster+Watch+the+Shadows+Dance+DVDrip+English+Klam","amp;tr":["udp%3A%2F%2Ftracker.openbittorrent.com%3A80","udp%3A%2F%2Fopen.demonii.com%3A1337","udp%3A%2F%2Ftracker.coppersurfer.tk%3A6969","udp%3A%2F%2Fexodus.desync.com%3A6969"],"infoHash":"3e206069f0008f7a2e7ae198327f10a596106e59","infoHashBuffer":{"type":"Buffer","data":[62,32,96,105,240,0,143,122,46,122,225,152,50,127,16,165,150,16,110,89]},"announce":[],"urlList":[]}}